<svg width="40" height="41" viewBox="0 0 40 41" fill="none" xmlns="http://www.w3.org/2000/svg">
<circle cx="20" cy="20.5" r="19.65" fill="white" fill-opacity="0.04" stroke="#575757" stroke-width="0.7"/>
<path d="M15.5 19.5C16.0304 19.5 16.5391 19.2893 16.9142 18.9142C17.2893 18.5391 17.5 18.0304 17.5 17.5C17.5 16.9696 17.2893 16.4609 16.9142 16.0858C16.5391 15.7107 16.0304 15.5 15.5 15.5H11V19.5H15.5ZM16.5 21.5H11V25.5H16.5C17.0304 25.5 17.5391 25.2893 17.9142 24.9142C18.2893 24.5391 18.5 24.0304 18.5 23.5C18.5 22.9696 18.2893 22.4609 17.9142 22.0858C17.5391 21.7107 17.0304 21.5 16.5 21.5ZM18.563 20.072C19.3125 20.5227 19.8937 21.2066 20.2175 22.0191C20.5413 22.8315 20.5899 23.7277 20.3559 24.5704C20.1218 25.4131 19.618 26.1559 18.9216 26.685C18.2252 27.2141 17.3746 27.5004 16.5 27.5H9V13.5H15.5C16.2617 13.4999 17.0075 13.7173 17.6498 14.1266C18.2922 14.5359 18.8043 15.1201 19.126 15.8105C19.4478 16.5008 19.5657 17.2687 19.4659 18.0238C19.3662 18.7789 19.0529 19.4898 18.563 20.073M23.5 14.5H29V16H23.5V14.5ZM31 23H23.5V23.25C23.4998 23.8677 23.7075 24.4676 24.0898 24.9528C24.4721 25.438 25.0066 25.7804 25.6073 25.9248C26.2079 26.0692 26.8396 26.0072 27.4007 25.7487C27.9617 25.4902 28.4194 25.0503 28.7 24.5H30.834C30.5293 25.6083 29.8333 26.5686 28.8748 27.203C27.9164 27.8374 26.7605 28.1029 25.6212 27.9503C24.482 27.7978 23.4367 27.2375 22.6789 26.3732C21.9212 25.509 21.5023 24.3994 21.5 23.25V21.75C21.5 20.4902 22.0004 19.282 22.8912 18.3912C23.782 17.5004 24.9902 17 26.25 17C27.5098 17 28.718 17.5004 29.6088 18.3912C30.4996 19.282 31 20.4902 31 21.75V23ZM28.896 21C28.7323 20.4245 28.3854 19.9181 27.9079 19.5575C27.4304 19.1969 26.8483 19.0018 26.25 19.0018C25.6517 19.0018 25.0696 19.1969 24.5921 19.5575C24.1146 19.9181 23.7677 20.4245 23.604 21H28.896Z" fill="#BABABA"/>
</svg>
