<svg width="40" height="41" viewBox="0 0 40 41" fill="none" xmlns="http://www.w3.org/2000/svg">
<circle cx="20" cy="20.5" r="19.65" fill="white" fill-opacity="0.04" stroke="#575757" stroke-width="0.7"/>
<path d="M30 20.5C30.0017 21.8172 29.7424 23.1216 29.237 24.3379C28.7316 25.5543 27.9901 26.6584 27.0555 27.5865C26.1285 28.5118 25.0283 29.2454 23.8177 29.7454C22.6071 30.2453 21.3098 30.5017 20 30.5C14.477 30.5 10 26.023 10 20.5C9.99651 17.9359 10.9814 15.4691 12.75 13.6125C13.6832 12.6278 14.8075 11.8439 16.0541 11.3087C17.3007 10.7735 18.6434 10.4983 20 10.5C21.3098 10.4983 22.6071 10.7547 23.8177 11.2547C25.0283 11.7546 26.1285 12.4882 27.0555 13.4135C27.9901 14.3416 28.7316 15.4457 29.237 16.6621C29.7424 17.8784 30.0017 19.1829 30 20.5Z" stroke="#BABABA" stroke-width="2" stroke-linecap="round" stroke-linejoin="round"/>
<path d="M30 20.5C28.541 20.5 24.516 19.95 20.9135 21.5315C17 23.25 14.1665 25.916 12.9315 27.5735" stroke="#BABABA" stroke-width="2" stroke-linecap="round" stroke-linejoin="round"/>
<path d="M16.25 11.2271C17.815 12.6716 21.23 16.3491 22.5 20.0001C23.77 23.6511 24.24 28.1401 24.53 29.4176" stroke="#BABABA" stroke-width="2" stroke-linecap="round" stroke-linejoin="round"/>
<path d="M10.077 19.2501C11.966 19.3641 16.9665 19.4666 20.1665 18.1001C23.3665 16.7336 26.12 14.2201 27.0645 13.4226M10.75 24.3066C11.6312 26.4396 13.2204 28.2037 15.25 29.3021" stroke="#BABABA" stroke-width="2" stroke-linecap="round" stroke-linejoin="round"/>
<path d="M10 20.5C9.99651 17.9359 10.9814 15.4691 12.75 13.6125C13.6832 12.6278 14.8075 11.8439 16.0541 11.3087C17.3007 10.7735 18.6434 10.4983 20 10.5M24 11.332C25.1388 11.8303 26.175 12.5361 27.0555 13.4135C27.9901 14.3416 28.7316 15.4457 29.237 16.6621C29.7424 17.8784 30.0017 19.1829 30 20.5C30 21.731 29.7775 22.9105 29.37 24M20 30.5C21.3098 30.5017 22.6071 30.2453 23.8177 29.7454C25.0283 29.2454 26.1285 28.5118 27.0555 27.5865" stroke="#BABABA" stroke-width="2" stroke-linecap="round" stroke-linejoin="round"/>
</svg>
