<svg width="40" height="41" viewBox="0 0 40 41" fill="none" xmlns="http://www.w3.org/2000/svg">
<circle cx="20" cy="20.5" r="19.65" fill="white" fill-opacity="0.04" stroke="#575757" stroke-width="0.7"/>
<g clip-path="url(#clip0_587_667)">
<path d="M26 11.5C26.7956 11.5 27.5587 11.8161 28.1213 12.3787C28.6839 12.9413 29 13.7044 29 14.5V26.5C29 27.2956 28.6839 28.0587 28.1213 28.6213C27.5587 29.1839 26.7956 29.5 26 29.5H14C13.2044 29.5 12.4413 29.1839 11.8787 28.6213C11.3161 28.0587 11 27.2956 11 26.5V14.5C11 13.7044 11.3161 12.9413 11.8787 12.3787C12.4413 11.8161 13.2044 11.5 14 11.5H26ZM26 13.5H14C13.7348 13.5 13.4804 13.6054 13.2929 13.7929C13.1054 13.9804 13 14.2348 13 14.5V26.5C13 26.7652 13.1054 27.0196 13.2929 27.2071C13.4804 27.3946 13.7348 27.5 14 27.5H26C26.2652 27.5 26.5196 27.3946 26.7071 27.2071C26.8946 27.0196 27 26.7652 27 26.5V14.5C27 14.2348 26.8946 13.9804 26.7071 13.7929C26.5196 13.6054 26.2652 13.5 26 13.5ZM16 18.5C16.2449 18.5 16.4813 18.59 16.6644 18.7527C16.8474 18.9155 16.9643 19.1397 16.993 19.383L17 19.5V24.5C16.9997 24.7549 16.9021 25 16.7272 25.1854C16.5522 25.3707 16.313 25.4822 16.0586 25.4972C15.8042 25.5121 15.5536 25.4293 15.3582 25.2657C15.1627 25.1021 15.0371 24.8701 15.007 24.617L15 24.5V19.5C15 19.2348 15.1054 18.9804 15.2929 18.7929C15.4804 18.6054 15.7348 18.5 16 18.5ZM19 17.5C19.2342 17.5 19.461 17.5821 19.6408 17.7322C19.8206 17.8822 19.9421 18.0906 19.984 18.321C20.1852 18.2043 20.3933 18.0998 20.607 18.008C21.274 17.723 22.273 17.566 23.175 17.849C23.648 17.999 24.123 18.279 24.475 18.756C24.79 19.181 24.96 19.698 24.994 20.279L25 20.5V24.5C24.9997 24.7549 24.9021 25 24.7272 25.1854C24.5522 25.3707 24.313 25.4822 24.0586 25.4972C23.8042 25.5121 23.5536 25.4293 23.3582 25.2657C23.1627 25.1021 23.0371 24.8701 23.007 24.617L23 24.5V20.5C23 20.17 22.92 20.016 22.868 19.945C22.7934 19.8522 22.6905 19.7862 22.575 19.757C22.227 19.647 21.726 19.705 21.393 19.847C20.893 20.061 20.435 20.397 20.123 20.708L20 20.84V24.5C19.9997 24.7549 19.9021 25 19.7272 25.1854C19.5522 25.3707 19.313 25.4822 19.0586 25.4972C18.8042 25.5121 18.5536 25.4293 18.3582 25.2657C18.1627 25.1021 18.0371 24.8701 18.007 24.617L18 24.5V18.5C18 18.2348 18.1054 17.9804 18.2929 17.7929C18.4804 17.6054 18.7348 17.5 19 17.5ZM16 15.5C16.2652 15.5 16.5196 15.6054 16.7071 15.7929C16.8946 15.9804 17 16.2348 17 16.5C17 16.7652 16.8946 17.0196 16.7071 17.2071C16.5196 17.3946 16.2652 17.5 16 17.5C15.7348 17.5 15.4804 17.3946 15.2929 17.2071C15.1054 17.0196 15 16.7652 15 16.5C15 16.2348 15.1054 15.9804 15.2929 15.7929C15.4804 15.6054 15.7348 15.5 16 15.5Z" fill="#BABABA"/>
</g>
<defs>
<clipPath id="clip0_587_667">
<rect width="24" height="24" fill="white" transform="translate(8 8.5)"/>
</clipPath>
</defs>
</svg>
